<?xml version="1.0" encoding="UTF-8" standalone="no"?>
<!-- Created with Inkscape (http://www.inkscape.org/) -->

<svg
   xmlns:dc="http://purl.org/dc/elements/1.1/"
   xmlns:cc="http://creativecommons.org/ns#"
   xmlns:rdf="http://www.w3.org/1999/02/22-rdf-syntax-ns#"
   xmlns:svg="http://www.w3.org/2000/svg"
   xmlns="http://www.w3.org/2000/svg"
   xmlns:sodipodi="http://sodipodi.sourceforge.net/DTD/sodipodi-0.dtd"
   xmlns:inkscape="http://www.inkscape.org/namespaces/inkscape"
   width="210mm"
   height="297mm"
   viewBox="0 0 744.09448819 1052.3622047"
   id="svg2"
   version="1.1"
   inkscape:version="0.91 r13725"
   sodipodi:docname="penrose.svg">
  <sodipodi:namedview
     id="base"
     pagecolor="#ffffff"
     bordercolor="#666666"
     borderopacity="1.0"
     inkscape:pageopacity="0.0"
     inkscape:pageshadow="2"
     inkscape:zoom="0.35"
     inkscape:cx="375"
     inkscape:cy="520"
     inkscape:document-units="px"
     inkscape:current-layer="svg2"
     showgrid="false"
     inkscape:window-width="1920"
     inkscape:window-height="1017"
     inkscape:window-x="-8"
     inkscape:window-y="-8"
     inkscape:window-maximized="1" />
  <defs
     id="defs4" />
  <metadata
     id="metadata7">
    <rdf:RDF>
      <cc:Work
         rdf:about="">
        <dc:format>image/svg+xml</dc:format>
        <dc:type
           rdf:resource="http://purl.org/dc/dcmitype/StillImage" />
        <dc:title></dc:title>
      </cc:Work>
    </rdf:RDF>
  </metadata>
  <g
     id="layer1"
     inkscape:groupmode="layer"
     inkscape:label="Layer 1" />
  <path
     id="path3453"
     d="M375.0,532.36220472L345.610737385,491.911355001L375.0,451.460505283L404.389262615,491.911355001L375.0,532.36220472M375.0,451.460505283L375.0,401.460505283L404.389262615,441.911355001L404.389262615,491.911355001L375.0,451.460505283M404.389262615,441.911355001L451.942088429,426.460505283L422.552825815,386.009655564L375.0,401.460505283L404.389262615,441.911355001L451.942088429,426.460505283M375.0,401.460505283L345.610737385,441.911355001L298.057911571,426.460505283L327.447174185,386.009655564L375.0,401.460505283M298.057911571,426.460505283L345.610737385,441.911355001L345.610737385,491.911355001L375.0,451.460505283L375.0,401.460505283L345.610737385,441.911355001M375.0,401.460505283L422.552825815,386.009655564L451.942088429,426.460505283L404.389262615,441.911355001L375.0,401.460505283M451.942088429,426.460505283L422.552825815,386.009655564L470.10565163,401.460505283L499.494914244,441.911355001L451.942088429,426.460505283M470.10565163,401.460505283L499.494914244,361.009655564L451.942088429,345.558805845L451.942088429,295.558805845L422.552825815,336.009655564L422.552825815,386.009655564L451.942088429,345.558805845M422.552825815,336.009655564L375.0,351.460505283L375.0,401.460505283L422.552825815,386.009655564L422.552825815,336.009655564M499.494914244,361.009655564L528.884176859,401.460505283L499.494914244,441.911355001L547.047740059,426.460505283L576.437002674,386.009655564L528.884176859,401.460505283M547.047740059,426.460505283L499.494914244,441.911355001L499.494914244,491.911355001L547.047740059,476.460505283L547.047740059,426.460505283M499.494914244,491.911355001L451.942088429,476.460505283L451.942088429,426.460505283L499.494914244,441.911355001L499.494914244,491.911355001M451.942088429,426.460505283L422.552825815,386.009655564L470.10565163,401.460505283L499.494914244,441.911355001L451.942088429,426.460505283M470.10565163,401.460505283L499.494914244,361.009655564M499.494914244,491.911355001L528.884176859,532.36220472L499.494914244,572.813054439L470.10565163,532.36220472L499.494914244,491.911355001M499.494914244,572.813054439L470.10565163,532.36220472L499.494914244,491.911355001L451.942088429,507.36220472L422.552825815,547.813054439L470.10565163,532.36220472M451.942088429,507.36220472L404.389262615,491.911355001L451.942088429,476.460505283L499.494914244,491.911355001L451.942088429,507.36220472M451.942088429,476.460505283L451.942088429,426.460505283L451.942088429,476.460505283L499.494914244,491.911355001L499.494914244,441.911355001L451.942088429,426.460505283M451.942088429,507.36220472L404.389262615,491.911355001L375.0,532.36220472L422.552825815,547.813054439L451.942088429,507.36220472M499.494914244,361.009655564L470.10565163,401.460505283L422.552825815,386.009655564L451.942088429,426.460505283L499.494914244,441.911355001L470.10565163,401.460505283M451.942088429,426.460505283L422.552825815,386.009655564L375.0,401.460505283L404.389262615,441.911355001L451.942088429,426.460505283M375.0,401.460505283L375.0,351.460505283L422.552825815,336.009655564L422.552825815,386.009655564L375.0,401.460505283M422.552825815,336.009655564L451.942088429,295.558805845L451.942088429,345.558805845L422.552825815,386.009655564L422.552825815,336.009655564M451.942088429,345.558805845L499.494914244,361.009655564M375.0,401.460505283L375.0,351.460505283L422.552825815,336.009655564L422.552825815,386.009655564L375.0,401.460505283M422.552825815,336.009655564L451.942088429,295.558805845L451.942088429,345.558805845L422.552825815,386.009655564L422.552825815,336.009655564M451.942088429,345.558805845L499.494914244,361.009655564L499.494914244,311.009655564L451.942088429,295.558805845L451.942088429,345.558805845L499.494914244,361.009655564M451.942088429,295.558805845L404.389262615,311.009655564L375.0,270.558805845L422.552825815,255.107956126L451.942088429,295.558805845M375.0,270.558805845L404.389262615,311.009655564L375.0,351.460505283L422.552825815,336.009655564L451.942088429,295.558805845L404.389262615,311.009655564M451.942088429,295.558805845L422.552825815,255.107956126L451.942088429,214.657106408L481.331351044,255.107956126L451.942088429,295.558805845M451.942088429,214.657106408L481.331351044,255.107956126L451.942088429,295.558805845L499.494914244,280.107956126L528.884176859,239.657106408L481.331351044,255.107956126M499.494914244,280.107956126L547.047740059,295.558805845L499.494914244,311.009655564L451.942088429,295.558805845L499.494914244,280.107956126M499.494914244,311.009655564L499.494914244,361.009655564L499.494914244,311.009655564L451.942088429,295.558805845L451.942088429,345.558805845L499.494914244,361.009655564M499.494914244,280.107956126L547.047740059,295.558805845L576.437002674,255.107956126L528.884176859,239.657106408L499.494914244,280.107956126M576.437002674,255.107956126L547.047740059,295.558805845L499.494914244,280.107956126L528.884176859,239.657106408L576.437002674,255.107956126M499.494914244,280.107956126L547.047740059,295.558805845L499.494914244,311.009655564L451.942088429,295.558805845L499.494914244,280.107956126M499.494914244,311.009655564L499.494914244,361.009655564L547.047740059,345.558805845L576.437002674,386.009655564L576.437002674,336.009655564L547.047740059,295.558805845L547.047740059,345.558805845M576.437002674,336.009655564L605.826265288,295.558805845L576.437002674,255.107956126L547.047740059,295.558805845L576.437002674,336.009655564M451.942088429,295.558805845L422.552825815,255.107956126L451.942088429,214.657106408L481.331351044,255.107956126L451.942088429,295.558805845M451.942088429,214.657106408L422.552825815,255.107956126L422.552825815,205.107956126L451.942088429,164.657106408L451.942088429,214.657106408M422.552825815,205.107956126L375.0,189.657106408L375.0,239.657106408L327.447174185,255.107956126L375.0,270.558805845L422.552825815,255.107956126L375.0,239.657106408M375.0,270.558805845L404.389262615,311.009655564L451.942088429,295.558805845L422.552825815,255.107956126L375.0,270.558805845M375.0,189.657106408L375.0,239.657106408L327.447174185,255.107956126L375.0,270.558805845L422.552825815,255.107956126L375.0,239.657106408M375.0,270.558805845L327.447174185,255.107956126L298.057911571,295.558805845L345.610737385,311.009655564L375.0,270.558805845M298.057911571,295.558805845L268.668648956,255.107956126L298.057911571,214.657106408L327.447174185,255.107956126L298.057911571,295.558805845M298.057911571,214.657106408L298.057911571,164.657106408L327.447174185,205.107956126L327.447174185,255.107956126L298.057911571,214.657106408M327.447174185,205.107956126L375.0,189.657106408M298.057911571,295.558805845L298.057911571,345.558805845L250.505085756,361.009655564L250.505085756,311.009655564L298.057911571,295.558805845M250.505085756,361.009655564L250.505085756,311.009655564L298.057911571,295.558805845L250.505085756,280.107956126L202.952259941,295.558805845L250.505085756,311.009655564M250.505085756,280.107956126L221.115823141,239.657106408L268.668648956,255.107956126L298.057911571,295.558805845L250.505085756,280.107956126M268.668648956,255.107956126L298.057911571,214.657106408L268.668648956,255.107956126L298.057911571,295.558805845L327.447174185,255.107956126L298.057911571,214.657106408M250.505085756,280.107956126L221.115823141,239.657106408L173.562997326,255.107956126L202.952259941,295.558805845L250.505085756,280.107956126M173.562997326,255.107956126L202.952259941,295.558805845L173.562997326,336.009655564L144.173734712,295.558805845L173.562997326,255.107956126M173.562997326,336.009655564L202.952259941,295.558805845L202.952259941,345.558805845L173.562997326,386.009655564L173.562997326,336.009655564M202.952259941,345.558805845L250.505085756,361.009655564L250.505085756,311.009655564L298.057911571,295.558805845L250.505085756,280.107956126L202.952259941,295.558805845L250.505085756,311.009655564M250.505085756,280.107956126L221.115823141,239.657106408L173.562997326,255.107956126L202.952259941,295.558805845L250.505085756,280.107956126M250.505085756,361.009655564L298.057911571,345.558805845L327.447174185,386.009655564L327.447174185,336.009655564L298.057911571,295.558805845L298.057911571,345.558805845M327.447174185,336.009655564L327.447174185,386.009655564L375.0,401.460505283L375.0,351.460505283L327.447174185,336.009655564M375.0,401.460505283L345.610737385,441.911355001L298.057911571,426.460505283L327.447174185,386.009655564L375.0,401.460505283M298.057911571,426.460505283L250.505085756,441.911355001L279.89434837,401.460505283L327.447174185,386.009655564L298.057911571,426.460505283M279.89434837,401.460505283L250.505085756,361.009655564M375.0,401.460505283L327.447174185,386.009655564L327.447174185,336.009655564L375.0,351.460505283L375.0,401.460505283M327.447174185,336.009655564L298.057911571,295.558805845L345.610737385,311.009655564L375.0,351.460505283L327.447174185,336.009655564M345.610737385,311.009655564L375.0,270.558805845L327.447174185,255.107956126L298.057911571,295.558805845L345.610737385,311.009655564L375.0,270.558805845M298.057911571,295.558805845L298.057911571,345.558805845L250.505085756,361.009655564L250.505085756,311.009655564L298.057911571,295.558805845M250.505085756,361.009655564L298.057911571,345.558805845L327.447174185,386.009655564L327.447174185,336.009655564L298.057911571,295.558805845L298.057911571,345.558805845M250.505085756,361.009655564L279.89434837,401.460505283L250.505085756,441.911355001L298.057911571,426.460505283L327.447174185,386.009655564L279.89434837,401.460505283M298.057911571,426.460505283L250.505085756,441.911355001L250.505085756,491.911355001L298.057911571,476.460505283L298.057911571,426.460505283M250.505085756,491.911355001L202.952259941,476.460505283L202.952259941,426.460505283L250.505085756,441.911355001L250.505085756,491.911355001M202.952259941,426.460505283L173.562997326,386.009655564L221.115823141,401.460505283L250.505085756,441.911355001L202.952259941,426.460505283M221.115823141,401.460505283L250.505085756,361.009655564M250.505085756,491.911355001L250.505085756,441.911355001L298.057911571,426.460505283L298.057911571,476.460505283L250.505085756,491.911355001M298.057911571,426.460505283L298.057911571,476.460505283L250.505085756,491.911355001L298.057911571,507.36220472L345.610737385,491.911355001L298.057911571,476.460505283M298.057911571,507.36220472L327.447174185,547.813054439L279.89434837,532.36220472L250.505085756,491.911355001L298.057911571,507.36220472M279.89434837,532.36220472L250.505085756,572.813054439L279.89434837,532.36220472L250.505085756,491.911355001L221.115823141,532.36220472L250.505085756,572.813054439M298.057911571,507.36220472L327.447174185,547.813054439L375.0,532.36220472L345.610737385,491.911355001L298.057911571,507.36220472M375.0,532.36220472L345.610737385,491.911355001L375.0,451.460505283L404.389262615,491.911355001L375.0,532.36220472M375.0,451.460505283L375.0,401.460505283L404.389262615,441.911355001L404.389262615,491.911355001L375.0,451.460505283M404.389262615,441.911355001L451.942088429,426.460505283L422.552825815,386.009655564L375.0,401.460505283L404.389262615,441.911355001L451.942088429,426.460505283M375.0,401.460505283L345.610737385,441.911355001L298.057911571,426.460505283L327.447174185,386.009655564L375.0,401.460505283M298.057911571,426.460505283L345.610737385,441.911355001L345.610737385,491.911355001L375.0,451.460505283L375.0,401.460505283L345.610737385,441.911355001M375.0,401.460505283L327.447174185,386.009655564L327.447174185,336.009655564L375.0,351.460505283L375.0,401.460505283M327.447174185,336.009655564L327.447174185,386.009655564L298.057911571,345.558805845L298.057911571,295.558805845L327.447174185,336.009655564M298.057911571,345.558805845L250.505085756,361.009655564L279.89434837,401.460505283L250.505085756,441.911355001L298.057911571,426.460505283L327.447174185,386.009655564L279.89434837,401.460505283M298.057911571,426.460505283L345.610737385,441.911355001L375.0,401.460505283L327.447174185,386.009655564L298.057911571,426.460505283M375.0,532.36220472L404.389262615,491.911355001L451.942088429,507.36220472L422.552825815,547.813054439L375.0,532.36220472M451.942088429,507.36220472L499.494914244,491.911355001L470.10565163,532.36220472L422.552825815,547.813054439L451.942088429,507.36220472M470.10565163,532.36220472L499.494914244,572.813054439L528.884176859,532.36220472L499.494914244,491.911355001L470.10565163,532.36220472L499.494914244,572.813054439M499.494914244,491.911355001L451.942088429,476.460505283L451.942088429,426.460505283L499.494914244,441.911355001L499.494914244,491.911355001M451.942088429,426.460505283L451.942088429,476.460505283L404.389262615,491.911355001L451.942088429,507.36220472L499.494914244,491.911355001L451.942088429,476.460505283M499.494914244,491.911355001L528.884176859,532.36220472L499.494914244,572.813054439L470.10565163,532.36220472L499.494914244,491.911355001M499.494914244,572.813054439L528.884176859,532.36220472L528.884176859,582.36220472L499.494914244,622.813054439L499.494914244,572.813054439M528.884176859,582.36220472L576.437002674,597.813054439L576.437002674,547.813054439L623.989828488,532.36220472L576.437002674,516.911355001L528.884176859,532.36220472L576.437002674,547.813054439M576.437002674,516.911355001L547.047740059,476.460505283L499.494914244,491.911355001L528.884176859,532.36220472L576.437002674,516.911355001M576.437002674,597.813054439L547.047740059,638.263904158L499.494914244,622.813054439L528.884176859,663.263904158L576.437002674,678.714753876L547.047740059,638.263904158M528.884176859,663.263904158L499.494914244,622.813054439L451.942088429,638.263904158L481.331351044,678.714753876L528.884176859,663.263904158M451.942088429,638.263904158L451.942088429,588.263904158L499.494914244,572.813054439L499.494914244,622.813054439L451.942088429,638.263904158M499.494914244,572.813054439L528.884176859,532.36220472L528.884176859,582.36220472L499.494914244,622.813054439L499.494914244,572.813054439M528.884176859,582.36220472L576.437002674,597.813054439M451.942088429,638.263904158L422.552825815,678.714753876L375.0,663.263904158L404.389262615,622.813054439L451.942088429,638.263904158M375.0,663.263904158L404.389262615,622.813054439L451.942088429,638.263904158L422.552825815,597.813054439L375.0,582.36220472L404.389262615,622.813054439M422.552825815,597.813054439L422.552825815,547.813054439L451.942088429,588.263904158L451.942088429,638.263904158L422.552825815,597.813054439M451.942088429,588.263904158L499.494914244,572.813054439L451.942088429,588.263904158L451.942088429,638.263904158L499.494914244,622.813054439L499.494914244,572.813054439M422.552825815,597.813054439L422.552825815,547.813054439L375.0,532.36220472L375.0,582.36220472L422.552825815,597.813054439M576.437002674,597.813054439L528.884176859,582.36220472L528.884176859,532.36220472L499.494914244,572.813054439L499.494914244,622.813054439L528.884176859,582.36220472M499.494914244,572.813054439L528.884176859,532.36220472L499.494914244,491.911355001L470.10565163,532.36220472L499.494914244,572.813054439M499.494914244,491.911355001L547.047740059,476.460505283L576.437002674,516.911355001L528.884176859,532.36220472L499.494914244,491.911355001M576.437002674,516.911355001L623.989828488,532.36220472L576.437002674,547.813054439L528.884176859,532.36220472L576.437002674,516.911355001M576.437002674,547.813054439L576.437002674,597.813054439M499.494914244,491.911355001L547.047740059,476.460505283L576.437002674,516.911355001L528.884176859,532.36220472L499.494914244,491.911355001M576.437002674,516.911355001L623.989828488,532.36220472L576.437002674,547.813054439L528.884176859,532.36220472L576.437002674,516.911355001M576.437002674,547.813054439L576.437002674,597.813054439L623.989828488,582.36220472L623.989828488,532.36220472L576.437002674,547.813054439L576.437002674,597.813054439M623.989828488,532.36220472L594.600565874,491.911355001L623.989828488,451.460505283L653.379091103,491.911355001L623.989828488,532.36220472M623.989828488,451.460505283L594.600565874,491.911355001L547.047740059,476.460505283L576.437002674,516.911355001L623.989828488,532.36220472L594.600565874,491.911355001M623.989828488,532.36220472L653.379091103,491.911355001L700.931916918,507.36220472L671.542654303,547.813054439L623.989828488,532.36220472M700.931916918,507.36220472L671.542654303,547.813054439L623.989828488,532.36220472L653.379091103,572.813054439L700.931916918,588.263904158L671.542654303,547.813054439M653.379091103,572.813054439L653.379091103,622.813054439L623.989828488,582.36220472L623.989828488,532.36220472L653.379091103,572.813054439M623.989828488,582.36220472L576.437002674,597.813054439L623.989828488,582.36220472L623.989828488,532.36220472L576.437002674,547.813054439L576.437002674,597.813054439M653.379091103,572.813054439L653.379091103,622.813054439L700.931916918,638.263904158L700.931916918,588.263904158L653.379091103,572.813054439M700.931916918,638.263904158L653.379091103,622.813054439L653.379091103,572.813054439L700.931916918,588.263904158L700.931916918,638.263904158M653.379091103,572.813054439L653.379091103,622.813054439L623.989828488,582.36220472L623.989828488,532.36220472L653.379091103,572.813054439M623.989828488,582.36220472L576.437002674,597.813054439L605.826265288,638.263904158L576.437002674,678.714753876L623.989828488,663.263904158L653.379091103,622.813054439L605.826265288,638.263904158M623.989828488,663.263904158L671.542654303,678.714753876L700.931916918,638.263904158L653.379091103,622.813054439L623.989828488,663.263904158M623.989828488,532.36220472L653.379091103,491.911355001L700.931916918,507.36220472L671.542654303,547.813054439L623.989828488,532.36220472M700.931916918,507.36220472L653.379091103,491.911355001L700.931916918,476.460505283L748.484742732,491.911355001L700.931916918,507.36220472M700.931916918,476.460505283L700.931916918,426.460505283L653.379091103,441.911355001L623.989828488,401.460505283L623.989828488,451.460505283L653.379091103,491.911355001L653.379091103,441.911355001M623.989828488,451.460505283L594.600565874,491.911355001L623.989828488,532.36220472L653.379091103,491.911355001L623.989828488,451.460505283M700.931916918,426.460505283L653.379091103,441.911355001L623.989828488,401.460505283L623.989828488,451.460505283L653.379091103,491.911355001L653.379091103,441.911355001M623.989828488,451.460505283L623.989828488,401.460505283L576.437002674,386.009655564L576.437002674,436.009655564L623.989828488,451.460505283M576.437002674,386.009655564L605.826265288,345.558805845L653.379091103,361.009655564L623.989828488,401.460505283L576.437002674,386.009655564M653.379091103,361.009655564L700.931916918,345.558805845L671.542654303,386.009655564L623.989828488,401.460505283L653.379091103,361.009655564M671.542654303,386.009655564L700.931916918,426.460505283M576.437002674,386.009655564L528.884176859,401.460505283L499.494914244,361.009655564L547.047740059,345.558805845L576.437002674,386.009655564M499.494914244,361.009655564L547.047740059,345.558805845L576.437002674,386.009655564L576.437002674,336.009655564L547.047740059,295.558805845L547.047740059,345.558805845M576.437002674,336.009655564L605.826265288,295.558805845L605.826265288,345.558805845L576.437002674,386.009655564L576.437002674,336.009655564M605.826265288,345.558805845L653.379091103,361.009655564L605.826265288,345.558805845L576.437002674,386.009655564L623.989828488,401.460505283L653.379091103,361.009655564M576.437002674,336.009655564L605.826265288,295.558805845L576.437002674,255.107956126L547.047740059,295.558805845L576.437002674,336.009655564M576.437002674,255.107956126L547.047740059,295.558805845L499.494914244,280.107956126L528.884176859,239.657106408L576.437002674,255.107956126M499.494914244,280.107956126L547.047740059,295.558805845L499.494914244,311.009655564L451.942088429,295.558805845L499.494914244,280.107956126M499.494914244,311.009655564L499.494914244,361.009655564L547.047740059,345.558805845L576.437002674,386.009655564L576.437002674,336.009655564L547.047740059,295.558805845L547.047740059,345.558805845M576.437002674,336.009655564L605.826265288,295.558805845L576.437002674,255.107956126L547.047740059,295.558805845L576.437002674,336.009655564M499.494914244,361.009655564L528.884176859,401.460505283L499.494914244,441.911355001L547.047740059,426.460505283L576.437002674,386.009655564L528.884176859,401.460505283M547.047740059,426.460505283L499.494914244,441.911355001L499.494914244,491.911355001L547.047740059,476.460505283L547.047740059,426.460505283M499.494914244,491.911355001L451.942088429,476.460505283L451.942088429,426.460505283L499.494914244,441.911355001L499.494914244,491.911355001M451.942088429,426.460505283L422.552825815,386.009655564L470.10565163,401.460505283L499.494914244,441.911355001L451.942088429,426.460505283M470.10565163,401.460505283L499.494914244,361.009655564M499.494914244,491.911355001L499.494914244,441.911355001L547.047740059,426.460505283L547.047740059,476.460505283L499.494914244,491.911355001M547.047740059,426.460505283L576.437002674,386.009655564L576.437002674,436.009655564L547.047740059,476.460505283L547.047740059,426.460505283M576.437002674,436.009655564L623.989828488,451.460505283L623.989828488,401.460505283L576.437002674,386.009655564L576.437002674,436.009655564L623.989828488,451.460505283M576.437002674,386.009655564L528.884176859,401.460505283L499.494914244,361.009655564L547.047740059,345.558805845L576.437002674,386.009655564M499.494914244,361.009655564L528.884176859,401.460505283L499.494914244,441.911355001L547.047740059,426.460505283L576.437002674,386.009655564L528.884176859,401.460505283M499.494914244,361.009655564L470.10565163,401.460505283L422.552825815,386.009655564L451.942088429,426.460505283L499.494914244,441.911355001L470.10565163,401.460505283M451.942088429,426.460505283L422.552825815,386.009655564L375.0,401.460505283L404.389262615,441.911355001L451.942088429,426.460505283M375.0,401.460505283L375.0,351.460505283L422.552825815,336.009655564L422.552825815,386.009655564L375.0,401.460505283M422.552825815,336.009655564L451.942088429,295.558805845L451.942088429,345.558805845L422.552825815,386.009655564L422.552825815,336.009655564M451.942088429,345.558805845L499.494914244,361.009655564M375.0,401.460505283L422.552825815,386.009655564L451.942088429,426.460505283L404.389262615,441.911355001L375.0,401.460505283M451.942088429,426.460505283L404.389262615,441.911355001L375.0,401.460505283L375.0,451.460505283L404.389262615,491.911355001L404.389262615,441.911355001M375.0,451.460505283L345.610737385,491.911355001L345.610737385,441.911355001L375.0,401.460505283L375.0,451.460505283M345.610737385,441.911355001L298.057911571,426.460505283L345.610737385,441.911355001L375.0,401.460505283L327.447174185,386.009655564L298.057911571,426.460505283M375.0,451.460505283L345.610737385,491.911355001L375.0,532.36220472L404.389262615,491.911355001L375.0,451.460505283M375.0,532.36220472L404.389262615,491.911355001L451.942088429,507.36220472L422.552825815,547.813054439L375.0,532.36220472M451.942088429,507.36220472L499.494914244,491.911355001L470.10565163,532.36220472L422.552825815,547.813054439L451.942088429,507.36220472M470.10565163,532.36220472L499.494914244,572.813054439L528.884176859,532.36220472L499.494914244,491.911355001L470.10565163,532.36220472L499.494914244,572.813054439M499.494914244,491.911355001L451.942088429,476.460505283L451.942088429,426.460505283L499.494914244,441.911355001L499.494914244,491.911355001M451.942088429,426.460505283L451.942088429,476.460505283L404.389262615,491.911355001L451.942088429,507.36220472L499.494914244,491.911355001L451.942088429,476.460505283M499.494914244,491.911355001L499.494914244,441.911355001L547.047740059,426.460505283L547.047740059,476.460505283L499.494914244,491.911355001M547.047740059,426.460505283L499.494914244,441.911355001L528.884176859,401.460505283L576.437002674,386.009655564L547.047740059,426.460505283M528.884176859,401.460505283L499.494914244,361.009655564L470.10565163,401.460505283L422.552825815,386.009655564L451.942088429,426.460505283L499.494914244,441.911355001L470.10565163,401.460505283M451.942088429,426.460505283L451.942088429,476.460505283L499.494914244,491.911355001L499.494914244,441.911355001L451.942088429,426.460505283M375.0,532.36220472L422.552825815,547.813054439L422.552825815,597.813054439L375.0,582.36220472L375.0,532.36220472M422.552825815,597.813054439L451.942088429,638.263904158L404.389262615,622.813054439L375.0,582.36220472L422.552825815,597.813054439M404.389262615,622.813054439L375.0,663.263904158L422.552825815,678.714753876L451.942088429,638.263904158L404.389262615,622.813054439L375.0,663.263904158M451.942088429,638.263904158L451.942088429,588.263904158L499.494914244,572.813054439L499.494914244,622.813054439L451.942088429,638.263904158M499.494914244,572.813054439L451.942088429,588.263904158L422.552825815,547.813054439L422.552825815,597.813054439L451.942088429,638.263904158L451.942088429,588.263904158M451.942088429,638.263904158L422.552825815,678.714753876L375.0,663.263904158L404.389262615,622.813054439L451.942088429,638.263904158M375.0,663.263904158L422.552825815,678.714753876L375.0,694.165603595L327.447174185,678.714753876L375.0,663.263904158M375.0,694.165603595L375.0,744.165603595L422.552825815,728.714753876L451.942088429,769.165603595L451.942088429,719.165603595L422.552825815,678.714753876L422.552825815,728.714753876M451.942088429,719.165603595L481.331351044,678.714753876L451.942088429,638.263904158L422.552825815,678.714753876L451.942088429,719.165603595M375.0,744.165603595L327.447174185,728.714753876L327.447174185,678.714753876L298.057911571,719.165603595L298.057911571,769.165603595L327.447174185,728.714753876M298.057911571,719.165603595L327.447174185,678.714753876L298.057911571,638.263904158L268.668648956,678.714753876L298.057911571,719.165603595M298.057911571,638.263904158L345.610737385,622.813054439L375.0,663.263904158L327.447174185,678.714753876L298.057911571,638.263904158M375.0,663.263904158L422.552825815,678.714753876L375.0,694.165603595L327.447174185,678.714753876L375.0,663.263904158M375.0,694.165603595L375.0,744.165603595M298.057911571,638.263904158L250.505085756,622.813054439L250.505085756,572.813054439L298.057911571,588.263904158L298.057911571,638.263904158M250.505085756,572.813054439L298.057911571,588.263904158L298.057911571,638.263904158L327.447174185,597.813054439L327.447174185,547.813054439L298.057911571,588.263904158M327.447174185,597.813054439L375.0,582.36220472L345.610737385,622.813054439L298.057911571,638.263904158L327.447174185,597.813054439M345.610737385,622.813054439L375.0,663.263904158L345.610737385,622.813054439L298.057911571,638.263904158L327.447174185,678.714753876L375.0,663.263904158M327.447174185,597.813054439L375.0,582.36220472L375.0,532.36220472L327.447174185,547.813054439L327.447174185,597.813054439M375.0,744.165603595L375.0,694.165603595L422.552825815,678.714753876L375.0,663.263904158L327.447174185,678.714753876L375.0,694.165603595M375.0,663.263904158L422.552825815,678.714753876L451.942088429,638.263904158L404.389262615,622.813054439L375.0,663.263904158M451.942088429,638.263904158L481.331351044,678.714753876L451.942088429,719.165603595L422.552825815,678.714753876L451.942088429,638.263904158M451.942088429,719.165603595L451.942088429,769.165603595L422.552825815,728.714753876L422.552825815,678.714753876L451.942088429,719.165603595M422.552825815,728.714753876L375.0,744.165603595M451.942088429,638.263904158L481.331351044,678.714753876L451.942088429,719.165603595L422.552825815,678.714753876L451.942088429,638.263904158M451.942088429,719.165603595L451.942088429,769.165603595L422.552825815,728.714753876L422.552825815,678.714753876L451.942088429,719.165603595M422.552825815,728.714753876L375.0,744.165603595L404.389262615,784.616453314L451.942088429,769.165603595L422.552825815,728.714753876L375.0,744.165603595M451.942088429,769.165603595L481.331351044,728.714753876L528.884176859,744.165603595L499.494914244,784.616453314L451.942088429,769.165603595M528.884176859,744.165603595L481.331351044,728.714753876L481.331351044,678.714753876L451.942088429,719.165603595L451.942088429,769.165603595L481.331351044,728.714753876M451.942088429,769.165603595L499.494914244,784.616453314L499.494914244,834.616453314L451.942088429,819.165603595L451.942088429,769.165603595M499.494914244,834.616453314L451.942088429,819.165603595L451.942088429,769.165603595L422.552825815,809.616453314L422.552825815,859.616453314L451.942088429,819.165603595M422.552825815,809.616453314L375.0,825.067303033L404.389262615,784.616453314L451.942088429,769.165603595L422.552825815,809.616453314M404.389262615,784.616453314L375.0,744.165603595L404.389262615,784.616453314L451.942088429,769.165603595L422.552825815,728.714753876L375.0,744.165603595M422.552825815,809.616453314L375.0,825.067303033L375.0,875.067303033L422.552825815,859.616453314L422.552825815,809.616453314M375.0,875.067303033L375.0,825.067303033L422.552825815,809.616453314L422.552825815,859.616453314L375.0,875.067303033M422.552825815,809.616453314L375.0,825.067303033L404.389262615,784.616453314L451.942088429,769.165603595L422.552825815,809.616453314M404.389262615,784.616453314L375.0,744.165603595L345.610737385,784.616453314L298.057911571,769.165603595L327.447174185,809.616453314L375.0,825.067303033L345.610737385,784.616453314M327.447174185,809.616453314L327.447174185,859.616453314L375.0,875.067303033L375.0,825.067303033L327.447174185,809.616453314M451.942088429,769.165603595L499.494914244,784.616453314L499.494914244,834.616453314L451.942088429,819.165603595L451.942088429,769.165603595M499.494914244,834.616453314L499.494914244,784.616453314L528.884176859,825.067303033L528.884176859,875.067303033L499.494914244,834.616453314M528.884176859,825.067303033L576.437002674,809.616453314L547.047740059,769.165603595L576.437002674,728.714753876L528.884176859,744.165603595L499.494914244,784.616453314L547.047740059,769.165603595M528.884176859,744.165603595L481.331351044,728.714753876L451.942088429,769.165603595L499.494914244,784.616453314L528.884176859,744.165603595M576.437002674,809.616453314L547.047740059,769.165603595L576.437002674,728.714753876L528.884176859,744.165603595L499.494914244,784.616453314L547.047740059,769.165603595M528.884176859,744.165603595L576.437002674,728.714753876L576.437002674,678.714753876L528.884176859,694.165603595L528.884176859,744.165603595M576.437002674,678.714753876L623.989828488,694.165603595L623.989828488,744.165603595L576.437002674,728.714753876L576.437002674,678.714753876M623.989828488,744.165603595L653.379091103,784.616453314L605.826265288,769.165603595L576.437002674,728.714753876L623.989828488,744.165603595M605.826265288,769.165603595L576.437002674,809.616453314M576.437002674,678.714753876L547.047740059,638.263904158L576.437002674,597.813054439L605.826265288,638.263904158L576.437002674,678.714753876M576.437002674,597.813054439L605.826265288,638.263904158L576.437002674,678.714753876L623.989828488,663.263904158L653.379091103,622.813054439L605.826265288,638.263904158M623.989828488,663.263904158L671.542654303,678.714753876L623.989828488,694.165603595L576.437002674,678.714753876L623.989828488,663.263904158M623.989828488,694.165603595L623.989828488,744.165603595L623.989828488,694.165603595L576.437002674,678.714753876L576.437002674,728.714753876L623.989828488,744.165603595M623.989828488,663.263904158L671.542654303,678.714753876L700.931916918,638.263904158L653.379091103,622.813054439L623.989828488,663.263904158M700.931916918,638.263904158L653.379091103,622.813054439L653.379091103,572.813054439L700.931916918,588.263904158L700.931916918,638.263904158M653.379091103,572.813054439L653.379091103,622.813054439L623.989828488,582.36220472L623.989828488,532.36220472L653.379091103,572.813054439M623.989828488,582.36220472L576.437002674,597.813054439L605.826265288,638.263904158L576.437002674,678.714753876L623.989828488,663.263904158L653.379091103,622.813054439L605.826265288,638.263904158M623.989828488,663.263904158L671.542654303,678.714753876L700.931916918,638.263904158L653.379091103,622.813054439L623.989828488,663.263904158M576.437002674,597.813054439L547.047740059,638.263904158L499.494914244,622.813054439L528.884176859,663.263904158L576.437002674,678.714753876L547.047740059,638.263904158M528.884176859,663.263904158L499.494914244,622.813054439L451.942088429,638.263904158L481.331351044,678.714753876L528.884176859,663.263904158M451.942088429,638.263904158L451.942088429,588.263904158L499.494914244,572.813054439L499.494914244,622.813054439L451.942088429,638.263904158M499.494914244,572.813054439L528.884176859,532.36220472L528.884176859,582.36220472L499.494914244,622.813054439L499.494914244,572.813054439M528.884176859,582.36220472L576.437002674,597.813054439M451.942088429,638.263904158L499.494914244,622.813054439L528.884176859,663.263904158L481.331351044,678.714753876L451.942088429,638.263904158M528.884176859,663.263904158L576.437002674,678.714753876L528.884176859,694.165603595L481.331351044,678.714753876L528.884176859,663.263904158M528.884176859,694.165603595L528.884176859,744.165603595L576.437002674,728.714753876L576.437002674,678.714753876L528.884176859,694.165603595L528.884176859,744.165603595M576.437002674,678.714753876L547.047740059,638.263904158L576.437002674,597.813054439L605.826265288,638.263904158L576.437002674,678.714753876M576.437002674,597.813054439L547.047740059,638.263904158L499.494914244,622.813054439L528.884176859,663.263904158L576.437002674,678.714753876L547.047740059,638.263904158M576.437002674,597.813054439L528.884176859,582.36220472L528.884176859,532.36220472L499.494914244,572.813054439L499.494914244,622.813054439L528.884176859,582.36220472M499.494914244,572.813054439L528.884176859,532.36220472L499.494914244,491.911355001L470.10565163,532.36220472L499.494914244,572.813054439M499.494914244,491.911355001L547.047740059,476.460505283L576.437002674,516.911355001L528.884176859,532.36220472L499.494914244,491.911355001M576.437002674,516.911355001L623.989828488,532.36220472L576.437002674,547.813054439L528.884176859,532.36220472L576.437002674,516.911355001M576.437002674,547.813054439L576.437002674,597.813054439M499.494914244,491.911355001L528.884176859,532.36220472L499.494914244,572.813054439L470.10565163,532.36220472L499.494914244,491.911355001M499.494914244,572.813054439L470.10565163,532.36220472L499.494914244,491.911355001L451.942088429,507.36220472L422.552825815,547.813054439L470.10565163,532.36220472M451.942088429,507.36220472L404.389262615,491.911355001L451.942088429,476.460505283L499.494914244,491.911355001L451.942088429,507.36220472M451.942088429,476.460505283L451.942088429,426.460505283L451.942088429,476.460505283L499.494914244,491.911355001L499.494914244,441.911355001L451.942088429,426.460505283M451.942088429,507.36220472L404.389262615,491.911355001L375.0,532.36220472L422.552825815,547.813054439L451.942088429,507.36220472M375.0,532.36220472L422.552825815,547.813054439L422.552825815,597.813054439L375.0,582.36220472L375.0,532.36220472M422.552825815,597.813054439L451.942088429,638.263904158L404.389262615,622.813054439L375.0,582.36220472L422.552825815,597.813054439M404.389262615,622.813054439L375.0,663.263904158L422.552825815,678.714753876L451.942088429,638.263904158L404.389262615,622.813054439L375.0,663.263904158M451.942088429,638.263904158L451.942088429,588.263904158L499.494914244,572.813054439L499.494914244,622.813054439L451.942088429,638.263904158M499.494914244,572.813054439L451.942088429,588.263904158L422.552825815,547.813054439L422.552825815,597.813054439L451.942088429,638.263904158L451.942088429,588.263904158M451.942088429,638.263904158L499.494914244,622.813054439L528.884176859,663.263904158L481.331351044,678.714753876L451.942088429,638.263904158M528.884176859,663.263904158L499.494914244,622.813054439L547.047740059,638.263904158L576.437002674,678.714753876L528.884176859,663.263904158M547.047740059,638.263904158L576.437002674,597.813054439L528.884176859,582.36220472L528.884176859,532.36220472L499.494914244,572.813054439L499.494914244,622.813054439L528.884176859,582.36220472M499.494914244,572.813054439L451.942088429,588.263904158L451.942088429,638.263904158L499.494914244,622.813054439L499.494914244,572.813054439M375.0,532.36220472L375.0,582.36220472L327.447174185,597.813054439L327.447174185,547.813054439L375.0,532.36220472M327.447174185,597.813054439L298.057911571,638.263904158L298.057911571,588.263904158L327.447174185,547.813054439L327.447174185,597.813054439M298.057911571,588.263904158L250.505085756,572.813054439L250.505085756,622.813054439L298.057911571,638.263904158L298.057911571,588.263904158L250.505085756,572.813054439M298.057911571,638.263904158L345.610737385,622.813054439L375.0,663.263904158L327.447174185,678.714753876L298.057911571,638.263904158M375.0,663.263904158L345.610737385,622.813054439L375.0,582.36220472L327.447174185,597.813054439L298.057911571,638.263904158L345.610737385,622.813054439M298.057911571,638.263904158L250.505085756,622.813054439L250.505085756,572.813054439L298.057911571,588.263904158L298.057911571,638.263904158M250.505085756,572.813054439L250.505085756,622.813054439L221.115823141,582.36220472L221.115823141,532.36220472L250.505085756,572.813054439M221.115823141,582.36220472L173.562997326,597.813054439L202.952259941,638.263904158L173.562997326,678.714753876L221.115823141,663.263904158L250.505085756,622.813054439L202.952259941,638.263904158M221.115823141,663.263904158L268.668648956,678.714753876L298.057911571,638.263904158L250.505085756,622.813054439L221.115823141,663.263904158M173.562997326,597.813054439L173.562997326,547.813054439L221.115823141,532.36220472L173.562997326,516.911355001L126.010171512,532.36220472L173.562997326,547.813054439M173.562997326,516.911355001L221.115823141,532.36220472L250.505085756,491.911355001L202.952259941,476.460505283L173.562997326,516.911355001M250.505085756,491.911355001L279.89434837,532.36220472L250.505085756,572.813054439L221.115823141,532.36220472L250.505085756,491.911355001M250.505085756,572.813054439L250.505085756,622.813054439L221.115823141,582.36220472L221.115823141,532.36220472L250.505085756,572.813054439M221.115823141,582.36220472L173.562997326,597.813054439M250.505085756,491.911355001L250.505085756,441.911355001L298.057911571,426.460505283L298.057911571,476.460505283L250.505085756,491.911355001M298.057911571,426.460505283L298.057911571,476.460505283L250.505085756,491.911355001L298.057911571,507.36220472L345.610737385,491.911355001L298.057911571,476.460505283M298.057911571,507.36220472L327.447174185,547.813054439L279.89434837,532.36220472L250.505085756,491.911355001L298.057911571,507.36220472M279.89434837,532.36220472L250.505085756,572.813054439L279.89434837,532.36220472L250.505085756,491.911355001L221.115823141,532.36220472L250.505085756,572.813054439M298.057911571,507.36220472L327.447174185,547.813054439L375.0,532.36220472L345.610737385,491.911355001L298.057911571,507.36220472M173.562997326,597.813054439L221.115823141,582.36220472L250.505085756,622.813054439L250.505085756,572.813054439L221.115823141,532.36220472L221.115823141,582.36220472M250.505085756,572.813054439L250.505085756,622.813054439L298.057911571,638.263904158L298.057911571,588.263904158L250.505085756,572.813054439M298.057911571,638.263904158L268.668648956,678.714753876L221.115823141,663.263904158L250.505085756,622.813054439L298.057911571,638.263904158M221.115823141,663.263904158L173.562997326,678.714753876L202.952259941,638.263904158L250.505085756,622.813054439L221.115823141,663.263904158M202.952259941,638.263904158L173.562997326,597.813054439M298.057911571,638.263904158L268.668648956,678.714753876L221.115823141,663.263904158L250.505085756,622.813054439L298.057911571,638.263904158M221.115823141,663.263904158L173.562997326,678.714753876L202.952259941,638.263904158L250.505085756,622.813054439L221.115823141,663.263904158M202.952259941,638.263904158L173.562997326,597.813054439L144.173734712,638.263904158L173.562997326,678.714753876L202.952259941,638.263904158L173.562997326,597.813054439M173.562997326,678.714753876L221.115823141,694.165603595L221.115823141,744.165603595L173.562997326,728.714753876L173.562997326,678.714753876M221.115823141,744.165603595L221.115823141,694.165603595L268.668648956,678.714753876L221.115823141,663.263904158L173.562997326,678.714753876L221.115823141,694.165603595M173.562997326,678.714753876L173.562997326,728.714753876L126.010171512,744.165603595L126.010171512,694.165603595L173.562997326,678.714753876M126.010171512,744.165603595L126.010171512,694.165603595L173.562997326,678.714753876L126.010171512,663.263904158L78.457345697,678.714753876L126.010171512,694.165603595M126.010171512,663.263904158L96.6209088971,622.813054439L144.173734712,638.263904158L173.562997326,678.714753876L126.010171512,663.263904158M144.173734712,638.263904158L173.562997326,597.813054439L144.173734712,638.263904158L173.562997326,678.714753876L202.952259941,638.263904158L173.562997326,597.813054439M126.010171512,663.263904158L96.6209088971,622.813054439L49.0680830823,638.263904158L78.457345697,678.714753876L126.010171512,663.263904158M49.0680830823,638.263904158L96.6209088971,622.813054439L126.010171512,663.263904158L78.457345697,678.714753876L49.0680830823,638.263904158M126.010171512,663.263904158L96.6209088971,622.813054439L144.173734712,638.263904158L173.562997326,678.714753876L126.010171512,663.263904158M144.173734712,638.263904158L173.562997326,597.813054439L126.010171512,582.36220472L126.010171512,532.36220472L96.6209088971,572.813054439L96.6209088971,622.813054439L126.010171512,582.36220472M96.6209088971,572.813054439L49.0680830823,588.263904158L49.0680830823,638.263904158L96.6209088971,622.813054439L96.6209088971,572.813054439M173.562997326,678.714753876L173.562997326,728.714753876L126.010171512,744.165603595L126.010171512,694.165603595L173.562997326,678.714753876M126.010171512,744.165603595L173.562997326,728.714753876L144.173734712,769.165603595L96.6209088971,784.616453314L126.010171512,744.165603595M144.173734712,769.165603595L173.562997326,809.616453314L202.952259941,769.165603595L250.505085756,784.616453314L221.115823141,744.165603595L173.562997326,728.714753876L202.952259941,769.165603595M221.115823141,744.165603595L221.115823141,694.165603595L173.562997326,678.714753876L173.562997326,728.714753876L221.115823141,744.165603595M173.562997326,809.616453314L202.952259941,769.165603595L250.505085756,784.616453314L221.115823141,744.165603595L173.562997326,728.714753876L202.952259941,769.165603595M221.115823141,744.165603595L250.505085756,784.616453314L298.057911571,769.165603595L268.668648956,728.714753876L221.115823141,744.165603595M298.057911571,769.165603595L298.057911571,819.165603595L250.505085756,834.616453314L250.505085756,784.616453314L298.057911571,769.165603595M250.505085756,834.616453314L221.115823141,875.067303033L221.115823141,825.067303033L250.505085756,784.616453314L250.505085756,834.616453314M221.115823141,825.067303033L173.562997326,809.616453314M298.057911571,769.165603595L327.447174185,728.714753876L375.0,744.165603595L345.610737385,784.616453314L298.057911571,769.165603595M375.0,744.165603595L345.610737385,784.616453314L298.057911571,769.165603595L327.447174185,809.616453314L375.0,825.067303033L345.610737385,784.616453314M327.447174185,809.616453314L327.447174185,859.616453314L298.057911571,819.165603595L298.057911571,769.165603595L327.447174185,809.616453314M298.057911571,819.165603595L250.505085756,834.616453314L298.057911571,819.165603595L298.057911571,769.165603595L250.505085756,784.616453314L250.505085756,834.616453314M327.447174185,809.616453314L327.447174185,859.616453314L375.0,875.067303033L375.0,825.067303033L327.447174185,809.616453314M375.0,875.067303033L375.0,825.067303033L422.552825815,809.616453314L422.552825815,859.616453314L375.0,875.067303033M422.552825815,809.616453314L375.0,825.067303033L404.389262615,784.616453314L451.942088429,769.165603595L422.552825815,809.616453314M404.389262615,784.616453314L375.0,744.165603595L345.610737385,784.616453314L298.057911571,769.165603595L327.447174185,809.616453314L375.0,825.067303033L345.610737385,784.616453314M327.447174185,809.616453314L327.447174185,859.616453314L375.0,875.067303033L375.0,825.067303033L327.447174185,809.616453314M375.0,744.165603595L327.447174185,728.714753876L327.447174185,678.714753876L298.057911571,719.165603595L298.057911571,769.165603595L327.447174185,728.714753876M298.057911571,719.165603595L327.447174185,678.714753876L298.057911571,638.263904158L268.668648956,678.714753876L298.057911571,719.165603595M298.057911571,638.263904158L345.610737385,622.813054439L375.0,663.263904158L327.447174185,678.714753876L298.057911571,638.263904158M375.0,663.263904158L422.552825815,678.714753876L375.0,694.165603595L327.447174185,678.714753876L375.0,663.263904158M375.0,694.165603595L375.0,744.165603595M298.057911571,638.263904158L327.447174185,678.714753876L298.057911571,719.165603595L268.668648956,678.714753876L298.057911571,638.263904158M298.057911571,719.165603595L298.057911571,769.165603595L268.668648956,728.714753876L268.668648956,678.714753876L298.057911571,719.165603595M268.668648956,728.714753876L221.115823141,744.165603595L250.505085756,784.616453314L298.057911571,769.165603595L268.668648956,728.714753876L221.115823141,744.165603595M298.057911571,769.165603595L327.447174185,728.714753876L375.0,744.165603595L345.610737385,784.616453314L298.057911571,769.165603595M375.0,744.165603595L327.447174185,728.714753876L327.447174185,678.714753876L298.057911571,719.165603595L298.057911571,769.165603595L327.447174185,728.714753876M375.0,744.165603595L375.0,694.165603595L422.552825815,678.714753876L375.0,663.263904158L327.447174185,678.714753876L375.0,694.165603595M375.0,663.263904158L422.552825815,678.714753876L451.942088429,638.263904158L404.389262615,622.813054439L375.0,663.263904158M451.942088429,638.263904158L481.331351044,678.714753876L451.942088429,719.165603595L422.552825815,678.714753876L451.942088429,638.263904158M451.942088429,719.165603595L451.942088429,769.165603595L422.552825815,728.714753876L422.552825815,678.714753876L451.942088429,719.165603595M422.552825815,728.714753876L375.0,744.165603595M451.942088429,638.263904158L422.552825815,678.714753876L375.0,663.263904158L404.389262615,622.813054439L451.942088429,638.263904158M375.0,663.263904158L404.389262615,622.813054439L451.942088429,638.263904158L422.552825815,597.813054439L375.0,582.36220472L404.389262615,622.813054439M422.552825815,597.813054439L422.552825815,547.813054439L451.942088429,588.263904158L451.942088429,638.263904158L422.552825815,597.813054439M451.942088429,588.263904158L499.494914244,572.813054439L451.942088429,588.263904158L451.942088429,638.263904158L499.494914244,622.813054439L499.494914244,572.813054439M422.552825815,597.813054439L422.552825815,547.813054439L375.0,532.36220472L375.0,582.36220472L422.552825815,597.813054439M375.0,532.36220472L375.0,582.36220472L327.447174185,597.813054439L327.447174185,547.813054439L375.0,532.36220472M327.447174185,597.813054439L298.057911571,638.263904158L298.057911571,588.263904158L327.447174185,547.813054439L327.447174185,597.813054439M298.057911571,588.263904158L250.505085756,572.813054439L250.505085756,622.813054439L298.057911571,638.263904158L298.057911571,588.263904158L250.505085756,572.813054439M298.057911571,638.263904158L345.610737385,622.813054439L375.0,663.263904158L327.447174185,678.714753876L298.057911571,638.263904158M375.0,663.263904158L345.610737385,622.813054439L375.0,582.36220472L327.447174185,597.813054439L298.057911571,638.263904158L345.610737385,622.813054439M298.057911571,638.263904158L327.447174185,678.714753876L298.057911571,719.165603595L268.668648956,678.714753876L298.057911571,638.263904158M298.057911571,719.165603595L327.447174185,678.714753876L327.447174185,728.714753876L298.057911571,769.165603595L298.057911571,719.165603595M327.447174185,728.714753876L375.0,744.165603595L375.0,694.165603595L422.552825815,678.714753876L375.0,663.263904158L327.447174185,678.714753876L375.0,694.165603595M375.0,663.263904158L345.610737385,622.813054439L298.057911571,638.263904158L327.447174185,678.714753876L375.0,663.263904158M375.0,532.36220472L327.447174185,547.813054439L298.057911571,507.36220472L345.610737385,491.911355001L375.0,532.36220472M298.057911571,507.36220472L250.505085756,491.911355001L298.057911571,476.460505283L345.610737385,491.911355001L298.057911571,507.36220472M298.057911571,476.460505283L298.057911571,426.460505283L250.505085756,441.911355001L250.505085756,491.911355001L298.057911571,476.460505283L298.057911571,426.460505283M250.505085756,491.911355001L279.89434837,532.36220472L250.505085756,572.813054439L221.115823141,532.36220472L250.505085756,491.911355001M250.505085756,572.813054439L279.89434837,532.36220472L327.447174185,547.813054439L298.057911571,507.36220472L250.505085756,491.911355001L279.89434837,532.36220472M250.505085756,491.911355001L250.505085756,441.911355001L298.057911571,426.460505283L298.057911571,476.460505283L250.505085756,491.911355001M298.057911571,426.460505283L250.505085756,441.911355001L279.89434837,401.460505283L327.447174185,386.009655564L298.057911571,426.460505283M279.89434837,401.460505283L250.505085756,361.009655564L221.115823141,401.460505283L173.562997326,386.009655564L202.952259941,426.460505283L250.505085756,441.911355001L221.115823141,401.460505283M202.952259941,426.460505283L202.952259941,476.460505283L250.505085756,491.911355001L250.505085756,441.911355001L202.952259941,426.460505283M250.505085756,361.009655564L298.057911571,345.558805845L327.447174185,386.009655564L327.447174185,336.009655564L298.057911571,295.558805845L298.057911571,345.558805845M327.447174185,336.009655564L327.447174185,386.009655564L375.0,401.460505283L375.0,351.460505283L327.447174185,336.009655564M375.0,401.460505283L345.610737385,441.911355001L298.057911571,426.460505283L327.447174185,386.009655564L375.0,401.460505283M298.057911571,426.460505283L250.505085756,441.911355001L279.89434837,401.460505283L327.447174185,386.009655564L298.057911571,426.460505283M279.89434837,401.460505283L250.505085756,361.009655564M375.0,401.460505283L422.552825815,386.009655564L451.942088429,426.460505283L404.389262615,441.911355001L375.0,401.460505283M451.942088429,426.460505283L404.389262615,441.911355001L375.0,401.460505283L375.0,451.460505283L404.389262615,491.911355001L404.389262615,441.911355001M375.0,451.460505283L345.610737385,491.911355001L345.610737385,441.911355001L375.0,401.460505283L375.0,451.460505283M345.610737385,441.911355001L298.057911571,426.460505283L345.610737385,441.911355001L375.0,401.460505283L327.447174185,386.009655564L298.057911571,426.460505283M375.0,451.460505283L345.610737385,491.911355001L375.0,532.36220472L404.389262615,491.911355001L375.0,451.460505283M250.505085756,361.009655564L279.89434837,401.460505283L250.505085756,441.911355001L298.057911571,426.460505283L327.447174185,386.009655564L279.89434837,401.460505283M298.057911571,426.460505283L250.505085756,441.911355001L250.505085756,491.911355001L298.057911571,476.460505283L298.057911571,426.460505283M250.505085756,491.911355001L202.952259941,476.460505283L202.952259941,426.460505283L250.505085756,441.911355001L250.505085756,491.911355001M202.952259941,426.460505283L173.562997326,386.009655564L221.115823141,401.460505283L250.505085756,441.911355001L202.952259941,426.460505283M221.115823141,401.460505283L250.505085756,361.009655564M250.505085756,491.911355001L202.952259941,476.460505283L202.952259941,426.460505283L250.505085756,441.911355001L250.505085756,491.911355001M202.952259941,426.460505283L173.562997326,386.009655564L221.115823141,401.460505283L250.505085756,441.911355001L202.952259941,426.460505283M221.115823141,401.460505283L250.505085756,361.009655564L202.952259941,345.558805845L173.562997326,386.009655564L221.115823141,401.460505283L250.505085756,361.009655564M173.562997326,386.009655564L173.562997326,436.009655564L126.010171512,451.460505283L126.010171512,401.460505283L173.562997326,386.009655564M126.010171512,451.460505283L173.562997326,436.009655564L202.952259941,476.460505283L202.952259941,426.460505283L173.562997326,386.009655564L173.562997326,436.009655564M173.562997326,386.009655564L126.010171512,401.460505283L96.6209088971,361.009655564L144.173734712,345.558805845L173.562997326,386.009655564M96.6209088971,361.009655564L144.173734712,345.558805845L173.562997326,386.009655564L173.562997326,336.009655564L144.173734712,295.558805845L144.173734712,345.558805845M173.562997326,336.009655564L202.952259941,295.558805845L202.952259941,345.558805845L173.562997326,386.009655564L173.562997326,336.009655564M202.952259941,345.558805845L250.505085756,361.009655564L202.952259941,345.558805845L173.562997326,386.009655564L221.115823141,401.460505283L250.505085756,361.009655564M173.562997326,336.009655564L202.952259941,295.558805845L173.562997326,255.107956126L144.173734712,295.558805845L173.562997326,336.009655564M173.562997326,255.107956126L202.952259941,295.558805845L173.562997326,336.009655564L144.173734712,295.558805845L173.562997326,255.107956126M173.562997326,336.009655564L202.952259941,295.558805845L202.952259941,345.558805845L173.562997326,386.009655564L173.562997326,336.009655564M202.952259941,345.558805845L250.505085756,361.009655564L250.505085756,311.009655564L298.057911571,295.558805845L250.505085756,280.107956126L202.952259941,295.558805845L250.505085756,311.009655564M250.505085756,280.107956126L221.115823141,239.657106408L173.562997326,255.107956126L202.952259941,295.558805845L250.505085756,280.107956126M173.562997326,386.009655564L126.010171512,401.460505283L96.6209088971,361.009655564L144.173734712,345.558805845L173.562997326,386.009655564M96.6209088971,361.009655564L126.010171512,401.460505283L78.457345697,386.009655564L49.0680830823,345.558805845L96.6209088971,361.009655564M78.457345697,386.009655564L49.0680830823,426.460505283L96.6209088971,441.911355001L96.6209088971,491.911355001L126.010171512,451.460505283L126.010171512,401.460505283L96.6209088971,441.911355001M126.010171512,451.460505283L173.562997326,436.009655564L173.562997326,386.009655564L126.010171512,401.460505283L126.010171512,451.460505283M49.0680830823,426.460505283L96.6209088971,441.911355001L96.6209088971,491.911355001L126.010171512,451.460505283L126.010171512,401.460505283L96.6209088971,441.911355001M126.010171512,451.460505283L96.6209088971,491.911355001L126.010171512,532.36220472L155.399434126,491.911355001L126.010171512,451.460505283M126.010171512,532.36220472L78.457345697,547.813054439L49.0680830823,507.36220472L96.6209088971,491.911355001L126.010171512,532.36220472M49.0680830823,507.36220472L1.51525726758,491.911355001L49.0680830823,476.460505283L96.6209088971,491.911355001L49.0680830823,507.36220472M49.0680830823,476.460505283L49.0680830823,426.460505283M126.010171512,532.36220472L173.562997326,547.813054439L173.562997326,597.813054439L126.010171512,582.36220472L126.010171512,532.36220472M173.562997326,597.813054439L126.010171512,582.36220472L126.010171512,532.36220472L96.6209088971,572.813054439L96.6209088971,622.813054439L126.010171512,582.36220472M96.6209088971,572.813054439L49.0680830823,588.263904158L78.457345697,547.813054439L126.010171512,532.36220472L96.6209088971,572.813054439M78.457345697,547.813054439L49.0680830823,507.36220472L78.457345697,547.813054439L126.010171512,532.36220472L96.6209088971,491.911355001L49.0680830823,507.36220472M96.6209088971,572.813054439L49.0680830823,588.263904158L49.0680830823,638.263904158L96.6209088971,622.813054439L96.6209088971,572.813054439M49.0680830823,638.263904158L96.6209088971,622.813054439L126.010171512,663.263904158L78.457345697,678.714753876L49.0680830823,638.263904158M126.010171512,663.263904158L96.6209088971,622.813054439L144.173734712,638.263904158L173.562997326,678.714753876L126.010171512,663.263904158M144.173734712,638.263904158L173.562997326,597.813054439L126.010171512,582.36220472L126.010171512,532.36220472L96.6209088971,572.813054439L96.6209088971,622.813054439L126.010171512,582.36220472M96.6209088971,572.813054439L49.0680830823,588.263904158L49.0680830823,638.263904158L96.6209088971,622.813054439L96.6209088971,572.813054439M173.562997326,597.813054439L173.562997326,547.813054439L221.115823141,532.36220472L173.562997326,516.911355001L126.010171512,532.36220472L173.562997326,547.813054439M173.562997326,516.911355001L221.115823141,532.36220472L250.505085756,491.911355001L202.952259941,476.460505283L173.562997326,516.911355001M250.505085756,491.911355001L279.89434837,532.36220472L250.505085756,572.813054439L221.115823141,532.36220472L250.505085756,491.911355001M250.505085756,572.813054439L250.505085756,622.813054439L221.115823141,582.36220472L221.115823141,532.36220472L250.505085756,572.813054439M221.115823141,582.36220472L173.562997326,597.813054439M250.505085756,491.911355001L221.115823141,532.36220472L173.562997326,516.911355001L202.952259941,476.460505283L250.505085756,491.911355001M173.562997326,516.911355001L126.010171512,532.36220472L155.399434126,491.911355001L202.952259941,476.460505283L173.562997326,516.911355001M155.399434126,491.911355001L126.010171512,451.460505283L96.6209088971,491.911355001L126.010171512,532.36220472L155.399434126,491.911355001L126.010171512,451.460505283M126.010171512,532.36220472L173.562997326,547.813054439L173.562997326,597.813054439L126.010171512,582.36220472L126.010171512,532.36220472M173.562997326,597.813054439L173.562997326,547.813054439L221.115823141,532.36220472L173.562997326,516.911355001L126.010171512,532.36220472L173.562997326,547.813054439M173.562997326,597.813054439L221.115823141,582.36220472L250.505085756,622.813054439L250.505085756,572.813054439L221.115823141,532.36220472L221.115823141,582.36220472M250.505085756,572.813054439L250.505085756,622.813054439L298.057911571,638.263904158L298.057911571,588.263904158L250.505085756,572.813054439M298.057911571,638.263904158L268.668648956,678.714753876L221.115823141,663.263904158L250.505085756,622.813054439L298.057911571,638.263904158M221.115823141,663.263904158L173.562997326,678.714753876L202.952259941,638.263904158L250.505085756,622.813054439L221.115823141,663.263904158M202.952259941,638.263904158L173.562997326,597.813054439M298.057911571,638.263904158L250.505085756,622.813054439L250.505085756,572.813054439L298.057911571,588.263904158L298.057911571,638.263904158M250.505085756,572.813054439L298.057911571,588.263904158L298.057911571,638.263904158L327.447174185,597.813054439L327.447174185,547.813054439L298.057911571,588.263904158M327.447174185,597.813054439L375.0,582.36220472L345.610737385,622.813054439L298.057911571,638.263904158L327.447174185,597.813054439M345.610737385,622.813054439L375.0,663.263904158L345.610737385,622.813054439L298.057911571,638.263904158L327.447174185,678.714753876L375.0,663.263904158M327.447174185,597.813054439L375.0,582.36220472L375.0,532.36220472L327.447174185,547.813054439L327.447174185,597.813054439M375.0,532.36220472L327.447174185,547.813054439L298.057911571,507.36220472L345.610737385,491.911355001L375.0,532.36220472M298.057911571,507.36220472L250.505085756,491.911355001L298.057911571,476.460505283L345.610737385,491.911355001L298.057911571,507.36220472M298.057911571,476.460505283L298.057911571,426.460505283L250.505085756,441.911355001L250.505085756,491.911355001L298.057911571,476.460505283L298.057911571,426.460505283M250.505085756,491.911355001L279.89434837,532.36220472L250.505085756,572.813054439L221.115823141,532.36220472L250.505085756,491.911355001M250.505085756,572.813054439L279.89434837,532.36220472L327.447174185,547.813054439L298.057911571,507.36220472L250.505085756,491.911355001L279.89434837,532.36220472M250.505085756,491.911355001L221.115823141,532.36220472L173.562997326,516.911355001L202.952259941,476.460505283L250.505085756,491.911355001M173.562997326,516.911355001L221.115823141,532.36220472L173.562997326,547.813054439L126.010171512,532.36220472L173.562997326,516.911355001M173.562997326,547.813054439L173.562997326,597.813054439L221.115823141,582.36220472L250.505085756,622.813054439L250.505085756,572.813054439L221.115823141,532.36220472L221.115823141,582.36220472M250.505085756,572.813054439L279.89434837,532.36220472L250.505085756,491.911355001L221.115823141,532.36220472L250.505085756,572.813054439"
     style="stroke-linejoin:miter;stroke-opacity:1.0;fill-opacity:1.0;stroke:#000000;stroke-linecap:butt;stroke-width:1.0;fill:none" />
</svg>
